# xmcd
#
# Track frame offsets: 
#        150
#        24549
#        45002
#        63646
#        86127
#        103598
#        127232
#        146396
#        158098
#
# Disc length: 2387 seconds
#
# Revision: 5
# Processed by: cddbd v1.5.2PL0 Copyright (c) Steve Scherf et al.
# Submitted via: ExactAudioCopy v0.95a4
#
DISCID=73095109
DTITLE=Decapitated - Nihility (German Edition)
DYEAR=2002
DGENRE=Death Metal
TTITLE0=Perfect Dehumanisation (The Answer?)
TTITLE1=Eternity Too Short
TTITLE2=Mother War
TTITLE3=Nihility (Anti-Human Manifesto)
TTITLE4=Names
TTITLE5=Spheres Of Madness
TTITLE6=Babylon's Pride
TTITLE7=Symmetry Of Zero
TTITLE8=Suffer The Children (Napalm Death Cover) (Bonus Track)
EXTD=YEAR: 2001
EXTT0=
EXTT1=
EXTT2=
EXTT3=
EXTT4=
EXTT5=
EXTT6=
EXTT7=
EXTT8=Napalm Death cover
PLAYORDER=
